<svg xmlns="http://www.w3.org/2000/svg" xmlns:svg="http://www.w3.org/2000/svg" width="64" height="64" version="1.1" viewBox="0 0 64 64"><style/><path fill="#729fcf" d="M13 13 9.4 9.4c0 0-2 2.1-3 3.4-1 1.2-2.1 3.3-2.1 3.3l4.4 2.5M13 13 9.4 9.4c0 0-2 2.1-3 3.4-1 1.2-2.1 3.3-2.1 3.3l4.4 2.5M13 13 9.4 9.4c0 0-2 2.1-3 3.4-1 1.2-2.1 3.3-2.1 3.3l4.4 2.5"/><path fill="#3465a4" d="m18.6 8.7-2.5-4.4c0 0-2.5 1.5-3.7 2.5-1.3 1-2.9 2.6-2.9 2.6l3.6 3.6M25.1 6 23.7 1.1c0 0-2.8 0.8-4.2 1.4-1.5 0.6-3.5 1.8-3.5 1.8l2.5 4.4"/><path fill="#204a87" d="m32 5.1 0-5.1c0 0-2.9 0.1-4.5 0.3-1.6 0.2-3.8 0.8-3.8 0.8l1.3 4.9M39 6l1.3-4.9M39 6l1.3-4.9M39 6l1.3-4.9c0 0-2.8-0.7-4.4-0.9C34.4 0 32 0 32 0l0 5.1"/><path fill="#fce94f" d="m45.6 8.7 2.6-4.4c0 0-2.5-1.4-4-2C42.7 1.7 40.4 1.1 40.4 1.1l-1.3 4.9M51 13l3.6-3.6M51 13l3.6-3.6M51 13l3.6-3.6c0 0-2.1-2-3.4-3-1.2-1-3.3-2.1-3.3-2.1l-2.5 4.4"/><path fill="#edd400" d="m55.3 18.6 4.4-2.5c0 0-1.5-2.5-2.5-3.7-1-1.3-2.6-2.9-2.6-2.9l-3.6 3.6M58 25.1l4.9-1.3M58 25.1l4.9-1.3M58 25.1l4.9-1.3c0 0-0.8-2.8-1.4-4.2-0.6-1.5-1.8-3.5-1.8-3.5l-4.4 2.5"/><path fill="#c4a000" d="m58.9 32 5.1 0c0 0-0.1-2.9-0.3-4.5-0.2-1.6-0.8-3.8-0.8-3.8l-4.9 1.3M58 39l4.9 1.3M58 39l4.9 1.3M58 39l4.9 1.3c0 0 0.7-2.8 0.9-4.4 0.2-1.6 0.2-3.9 0.2-3.9l-5.1 0"/><path fill="#8ae234" d="m55.3 45.5 4.4 2.6c0 0 1.4-2.5 2-4 0.6-1.5 1.2-3.7 1.2-3.7l-4.9-1.3M51 51l3.6 3.6M51 51l3.6 3.6M51 51l3.6 3.6c0 0 2-2.1 3-3.4 1-1.2 2.1-3.3 2.1-3.3l-4.4-2.5"/><path fill="#73d216" d="m45.4 55.3 2.5 4.4c0 0 2.5-1.5 3.7-2.5 1.3-1 2.9-2.6 2.9-2.6l-3.6-3.6M38.9 58l1.3 4.9M38.9 58l1.3 4.9M38.9 58l1.3 4.9c0 0 2.8-0.8 4.2-1.4 1.5-0.6 3.5-1.8 3.5-1.8l-2.5-4.4"/><path fill="#4e9a06" d="m32 58.9 0 5.1c0 0 2.9-0.1 4.5-0.3 1.6-0.2 3.8-0.8 3.8-0.8l-1.3-4.9M25 58l-1.3 4.9M25 58l-1.3 4.9M25 58l-1.3 4.9c0 0 2.8 0.7 4.4 0.9 1.6 0.2 3.9 0.2 3.9 0.2l0-5.1"/><path fill="#ef2929" d="m18.5 55.3-2.6 4.4c0 0 2.5 1.4 4 2 1.5 0.6 3.7 1.2 3.7 1.2l1.3-4.9M13 51l-3.6 3.6M13 51l-3.6 3.6M13 51l-3.6 3.6c0 0 2.1 2 3.4 3 1.2 1 3.3 2.1 3.3 2.1l2.5-4.4"/><path fill="#c00" d="m8.7 45.4-4.4 2.5c0 0 1.5 2.5 2.5 3.7 1 1.3 2.6 2.9 2.6 2.9l3.6-3.6M6 38.9l-4.9 1.3M6 38.9l-4.9 1.3M6 38.9l-4.9 1.3c0 0 0.8 2.8 1.4 4.2 0.6 1.5 1.8 3.5 1.8 3.5l4.4-2.5"/><path fill="#ce5c00" d="m5.1 32-5.1 0c0 0 0.1 2.9 0.3 4.5 0.2 1.6 0.8 3.8 0.8 3.8l4.9-1.3M6 25 1.1 23.7c0 0-0.7 2.8-0.9 4.4-0.2 1.6-0.2 3.9-0.2 3.9l5.1 0"/><path fill="#729fcf" d="m8.7 18.5-4.4-2.6c0 0-1.4 2.5-2 4-0.6 1.5-1.2 3.7-1.2 3.7l4.9 1.3"/></svg>